<svg xmlns="http://www.w3.org/2000/svg" xml:space="preserve" width="380px" height="118.150px" version="1.1" style="shape-rendering:geometricPrecision; text-rendering:geometricPrecision; image-rendering:optimizeQuality; fill-rule:evenodd; clip-rule:evenodd"
viewBox="0 0 2811 874"
 xmlns:xlink="http://www.w3.org/1999/xlink">
 <defs>
  <style type="text/css">
   <![CDATA[
    .str0 {stroke:#242424;stroke-width:20.8321}
    .fil4 {fill:none}
    .fil1 {fill:none;fill-rule:nonzero}
    .fil5 {fill:#BFC6E4}
    .fil6 {fill:#2B66B3}
    .fil3 {fill:#3A5EA6}
    .fil7 {fill:#ACC9E9}
    .fil2 {fill:#BFC6E4}
    .fil0 {fill:#242424;fill-rule:nonzero}
    .fil8 {fill:url(#id3)}
   ]]>
  </style>
    <clipPath id="id0">
     <path d="M336 119c-107,0 -194,87 -194,194 0,108 87,194 194,194 107,0 194,-86 194,-194 0,-107 -87,-194 -194,-194z"/>
    </clipPath>
      <mask id="id1">
  <linearGradient id="id2" gradientUnits="userSpaceOnUse" x1="337.484" y1="153.947" x2="334.475" y2="334.189">
   <stop offset="0" style="stop-opacity:1; stop-color:white"/>
   <stop offset="0.431373" style="stop-opacity:0.501961; stop-color:white"/>
   <stop offset="1" style="stop-opacity:0; stop-color:white"/>
  </linearGradient>
       <rect style="fill:url(#id2)" x="189" y="134" width="295" height="220"/>
      </mask>
  <radialGradient id="id3" gradientUnits="userSpaceOnUse" gradientTransform="matrix(0.999999 -0 -0 1 0 0)" cx="339.364" cy="312.013" r="188.343" fx="339.364" fy="312.013">
   <stop offset="0" style="stop-opacity:1; stop-color:#3D73B7"/>
   <stop offset="0.921569" style="stop-opacity:1; stop-color:#3667AC"/>
   <stop offset="1" style="stop-opacity:1; stop-color:#2F5BA2"/>
  </radialGradient>
 </defs>
 <g id="Layer_x0020_1">
  <metadata id="CorelCorpID_0Corel-Layer"/>
  <path class="fil0" d="M957 552c4,5 5,10 5,14 0,7 -2,12 -8,16 -5,4 -11,6 -18,6 -4,0 -8,-1 -12,-3 -4,-2 -8,-5 -11,-9l-55 -84c-6,-9 -11,-15 -18,-19 -6,-4 -14,-5 -24,-5l-41 0 0 93c0,8 -2,15 -7,20 -5,5 -11,7 -19,7 -8,0 -15,-2 -20,-7 -4,-5 -7,-12 -7,-20l0 -244c0,-8 2,-14 7,-19 5,-4 11,-6 19,-6l104 0c34,0 59,7 76,22 18,15 26,36 26,64 0,23 -6,42 -19,56 -13,15 -31,24 -55,29 8,2 15,5 21,10 6,5 12,12 18,21l38 58zm-112 -126c20,0 35,-3 44,-11 10,-8 14,-19 14,-35 0,-16 -4,-28 -14,-36 -9,-7 -24,-11 -44,-11l-70 0 0 93 70 0z"/>
  <path id="1" class="fil0" d="M1123 589c-21,0 -39,-4 -55,-13 -16,-9 -28,-21 -37,-37 -8,-16 -12,-35 -12,-56 0,-22 4,-40 12,-56 9,-16 21,-29 37,-37 16,-9 34,-13 55,-13 21,0 39,4 54,13 16,8 28,21 37,37 8,16 12,34 12,56 0,21 -4,40 -12,56 -9,16 -21,28 -37,37 -15,9 -33,13 -54,13zm-1 -41c17,0 30,-5 39,-16 9,-11 13,-28 13,-49 0,-22 -4,-38 -13,-49 -9,-12 -22,-17 -38,-17 -17,0 -30,5 -39,17 -9,11 -13,27 -13,49 0,21 4,38 13,49 9,11 22,16 38,16z"/>
  <path id="2" class="fil0" d="M1453 378c8,0 14,2 19,6 5,5 7,11 7,18l0 162c0,7 -2,13 -7,17 -5,5 -11,7 -19,7 -8,0 -14,-2 -18,-6 -5,-4 -7,-10 -7,-17l0 -11c-6,11 -15,20 -26,26 -10,6 -23,9 -36,9 -50,0 -75,-28 -75,-84l0 -103c0,-7 2,-13 7,-18 5,-4 11,-6 19,-6 8,0 14,2 19,6 4,5 7,11 7,18l0 103c0,15 3,25 9,32 5,7 15,11 27,11 14,0 26,-5 35,-15 9,-9 13,-22 13,-38l0 -93c0,-7 2,-13 7,-18 5,-4 11,-6 19,-6z"/>
  <path id="3" class="fil0" d="M1674 377c25,0 43,7 55,21 12,14 18,34 18,63l0 102c0,8 -3,14 -7,18 -5,5 -11,7 -19,7 -8,0 -15,-2 -19,-7 -5,-4 -7,-10 -7,-18l0 -100c0,-15 -3,-27 -9,-34 -6,-7 -16,-11 -29,-11 -15,0 -27,5 -36,14 -9,10 -13,22 -13,38l0 93c0,8 -2,14 -7,18 -5,5 -11,7 -19,7 -8,0 -15,-2 -19,-7 -5,-4 -7,-10 -7,-18l0 -161c0,-7 2,-13 7,-18 5,-4 11,-6 19,-6 7,0 13,2 18,6 4,4 7,10 7,17l0 11c7,-11 16,-20 28,-26 11,-6 24,-9 39,-9z"/>
  <path id="4" class="fil0" d="M1992 290c8,0 14,2 19,6 5,5 8,11 8,18l0 249c0,8 -3,13 -7,18 -5,4 -11,7 -19,7 -8,0 -14,-3 -19,-7 -5,-5 -7,-10 -7,-18l0 -10c-6,11 -15,20 -26,26 -12,7 -25,10 -40,10 -17,0 -33,-5 -47,-13 -13,-9 -24,-22 -32,-38 -7,-16 -11,-35 -11,-56 0,-21 4,-40 11,-56 8,-15 19,-28 32,-36 14,-9 30,-13 47,-13 15,0 28,3 39,9 12,6 21,15 27,26l0 -99c0,-7 2,-13 7,-17 4,-4 10,-6 18,-6zm-77 258c17,0 30,-5 39,-17 9,-11 13,-27 13,-48 0,-21 -4,-38 -13,-49 -9,-11 -22,-17 -39,-17 -16,0 -29,6 -38,17 -9,11 -14,27 -14,48 0,21 5,37 14,49 9,12 22,17 38,17z"/>
  <path id="5" class="fil0" d="M2212 377c18,0 33,4 47,13 14,9 25,22 32,38 8,16 12,35 12,56 0,21 -4,39 -12,55 -7,16 -18,28 -32,37 -13,9 -29,13 -47,13 -14,0 -27,-3 -39,-9 -11,-6 -20,-15 -26,-26l0 85c0,7 -2,13 -7,17 -5,5 -11,7 -19,7 -7,0 -14,-3 -19,-7 -4,-5 -7,-10 -7,-18l0 -236c0,-7 2,-13 7,-18 5,-4 11,-6 19,-6 7,0 14,2 18,6 5,5 7,11 7,18l0 11c6,-12 15,-21 27,-27 11,-6 24,-9 39,-9zm-14 171c17,0 30,-5 39,-16 9,-12 14,-28 14,-48 0,-21 -5,-38 -14,-49 -9,-12 -22,-18 -39,-18 -16,0 -29,6 -38,17 -9,12 -14,28 -14,49 0,21 5,37 14,48 9,12 22,17 38,17z"/>
  <path id="6" class="fil0" d="M2394 588c-8,0 -14,-2 -19,-6 -4,-5 -7,-11 -7,-19l0 -161c0,-8 3,-14 7,-18 5,-4 11,-6 19,-6 7,0 14,2 19,6 5,4 7,10 7,18l0 161c0,8 -2,14 -7,19 -5,4 -12,6 -19,6zm0 -247c-10,0 -17,-3 -23,-8 -5,-5 -8,-12 -8,-20 0,-9 3,-15 8,-20 6,-5 13,-8 23,-8 9,0 17,3 22,8 6,5 9,11 9,20 0,8 -3,15 -9,20 -5,5 -13,8 -22,8z"/>
  <path id="7" class="fil0" d="M2615 377c24,0 42,7 54,21 12,14 18,34 18,63l0 102c0,8 -2,14 -7,18 -4,5 -10,7 -18,7 -9,0 -15,-2 -20,-7 -4,-4 -7,-10 -7,-18l0 -100c0,-15 -3,-27 -9,-34 -6,-7 -15,-11 -28,-11 -15,0 -27,5 -36,14 -9,10 -13,22 -13,38l0 93c0,8 -3,14 -7,18 -5,5 -12,7 -20,7 -8,0 -14,-2 -19,-7 -4,-4 -6,-10 -6,-18l0 -161c0,-7 2,-13 7,-18 4,-4 11,-6 19,-6 7,0 13,2 17,6 5,4 7,10 7,17l0 11c7,-11 17,-20 28,-26 12,-6 25,-9 40,-9z"/>
  <path id="8" class="fil1 str0" d="M957 552c4,5 5,10 5,14 0,7 -2,12 -8,16 -5,4 -11,6 -18,6 -4,0 -8,-1 -12,-3 -4,-2 -8,-5 -11,-9l-55 -84c-6,-9 -11,-15 -18,-19 -6,-4 -14,-5 -24,-5l-41 0 0 93c0,8 -2,15 -7,20 -5,5 -11,7 -19,7 -8,0 -15,-2 -20,-7 -4,-5 -7,-12 -7,-20l0 -244c0,-8 2,-14 7,-19 5,-4 11,-6 19,-6l104 0c34,0 59,7 76,22 18,15 26,36 26,64 0,23 -6,42 -19,56 -13,15 -31,24 -55,29 8,2 15,5 21,10 6,5 12,12 18,21l38 58zm-112 -126c20,0 35,-3 44,-11 10,-8 14,-19 14,-35 0,-16 -4,-28 -14,-36 -9,-7 -24,-11 -44,-11l-70 0 0 93 70 0z"/>
  <path id="9" class="fil1 str0" d="M1123 589c-21,0 -39,-4 -55,-13 -16,-9 -28,-21 -37,-37 -8,-16 -12,-35 -12,-56 0,-22 4,-40 12,-56 9,-16 21,-29 37,-37 16,-9 34,-13 55,-13 21,0 39,4 54,13 16,8 28,21 37,37 8,16 12,34 12,56 0,21 -4,40 -12,56 -9,16 -21,28 -37,37 -15,9 -33,13 -54,13zm-1 -41c17,0 30,-5 39,-16 9,-11 13,-28 13,-49 0,-22 -4,-38 -13,-49 -9,-12 -22,-17 -38,-17 -17,0 -30,5 -39,17 -9,11 -13,27 -13,49 0,21 4,38 13,49 9,11 22,16 38,16z"/>
  <path id="10" class="fil1 str0" d="M1453 378c8,0 14,2 19,6 5,5 7,11 7,18l0 162c0,7 -2,13 -7,17 -5,5 -11,7 -19,7 -8,0 -14,-2 -18,-6 -5,-4 -7,-10 -7,-17l0 -11c-6,11 -15,20 -26,26 -10,6 -23,9 -36,9 -50,0 -75,-28 -75,-84l0 -103c0,-7 2,-13 7,-18 5,-4 11,-6 19,-6 8,0 14,2 19,6 4,5 7,11 7,18l0 103c0,15 3,25 9,32 5,7 15,11 27,11 14,0 26,-5 35,-15 9,-9 13,-22 13,-38l0 -93c0,-7 2,-13 7,-18 5,-4 11,-6 19,-6z"/>
  <path id="11" class="fil1 str0" d="M1674 377c25,0 43,7 55,21 12,14 18,34 18,63l0 102c0,8 -3,14 -7,18 -5,5 -11,7 -19,7 -8,0 -15,-2 -19,-7 -5,-4 -7,-10 -7,-18l0 -100c0,-15 -3,-27 -9,-34 -6,-7 -16,-11 -29,-11 -15,0 -27,5 -36,14 -9,10 -13,22 -13,38l0 93c0,8 -2,14 -7,18 -5,5 -11,7 -19,7 -8,0 -15,-2 -19,-7 -5,-4 -7,-10 -7,-18l0 -161c0,-7 2,-13 7,-18 5,-4 11,-6 19,-6 7,0 13,2 18,6 4,4 7,10 7,17l0 11c7,-11 16,-20 28,-26 11,-6 24,-9 39,-9z"/>
  <path id="12" class="fil1 str0" d="M1992 290c8,0 14,2 19,6 5,5 8,11 8,18l0 249c0,8 -3,13 -7,18 -5,4 -11,7 -19,7 -8,0 -14,-3 -19,-7 -5,-5 -7,-10 -7,-18l0 -10c-6,11 -15,20 -26,26 -12,7 -25,10 -40,10 -17,0 -33,-5 -47,-13 -13,-9 -24,-22 -32,-38 -7,-16 -11,-35 -11,-56 0,-21 4,-40 11,-56 8,-15 19,-28 32,-36 14,-9 30,-13 47,-13 15,0 28,3 39,9 12,6 21,15 27,26l0 -99c0,-7 2,-13 7,-17 4,-4 10,-6 18,-6zm-77 258c17,0 30,-5 39,-17 9,-11 13,-27 13,-48 0,-21 -4,-38 -13,-49 -9,-11 -22,-17 -39,-17 -16,0 -29,6 -38,17 -9,11 -14,27 -14,48 0,21 5,37 14,49 9,12 22,17 38,17z"/>
  <path id="13" class="fil1 str0" d="M2212 377c18,0 33,4 47,13 14,9 25,22 32,38 8,16 12,35 12,56 0,21 -4,39 -12,55 -7,16 -18,28 -32,37 -13,9 -29,13 -47,13 -14,0 -27,-3 -39,-9 -11,-6 -20,-15 -26,-26l0 85c0,7 -2,13 -7,17 -5,5 -11,7 -19,7 -7,0 -14,-3 -19,-7 -4,-5 -7,-10 -7,-18l0 -236c0,-7 2,-13 7,-18 5,-4 11,-6 19,-6 7,0 14,2 18,6 5,5 7,11 7,18l0 11c6,-12 15,-21 27,-27 11,-6 24,-9 39,-9zm-14 171c17,0 30,-5 39,-16 9,-12 14,-28 14,-48 0,-21 -5,-38 -14,-49 -9,-12 -22,-18 -39,-18 -16,0 -29,6 -38,17 -9,12 -14,28 -14,49 0,21 5,37 14,48 9,12 22,17 38,17z"/>
  <path id="14" class="fil1 str0" d="M2394 588c-8,0 -14,-2 -19,-6 -4,-5 -7,-11 -7,-19l0 -161c0,-8 3,-14 7,-18 5,-4 11,-6 19,-6 7,0 14,2 19,6 5,4 7,10 7,18l0 161c0,8 -2,14 -7,19 -5,4 -12,6 -19,6zm0 -247c-10,0 -17,-3 -23,-8 -5,-5 -8,-12 -8,-20 0,-9 3,-15 8,-20 6,-5 13,-8 23,-8 9,0 17,3 22,8 6,5 9,11 9,20 0,8 -3,15 -9,20 -5,5 -13,8 -22,8z"/>
  <path id="15" class="fil1 str0" d="M2615 377c24,0 42,7 54,21 12,14 18,34 18,63l0 102c0,8 -2,14 -7,18 -4,5 -10,7 -18,7 -9,0 -15,-2 -20,-7 -4,-4 -7,-10 -7,-18l0 -100c0,-15 -3,-27 -9,-34 -6,-7 -15,-11 -28,-11 -15,0 -27,5 -36,14 -9,10 -13,22 -13,38l0 93c0,8 -3,14 -7,18 -5,5 -12,7 -20,7 -8,0 -14,-2 -19,-7 -4,-4 -6,-10 -6,-18l0 -161c0,-7 2,-13 7,-18 4,-4 11,-6 19,-6 7,0 13,2 17,6 5,4 7,10 7,17l0 11c7,-11 17,-20 28,-26 12,-6 25,-9 40,-9z"/>
  <g id="_692272003424">
   <path class="fil2" d="M324 63c149,-4 232,116 232,250 0,97 -46,165 -111,203 -8,5 -17,18 -24,37l-91 227c-4,9 -12,16 -18,16 -6,0 -16,-7 -20,-17l-101 -226c-8,-19 -30,-24 -37,-30 -61,-51 -103,-128 -96,-216 11,-134 117,-241 266,-244z"/>
   <path class="fil3" d="M338 62c139,0 251,113 251,251 0,100 -46,170 -111,210 -8,5 -17,18 -25,38l-90 235c-4,9 -12,16 -18,16 -7,0 -17,-8 -21,-17l-100 -234c-9,-20 -18,-33 -26,-38 -65,-40 -111,-110 -111,-210 0,-138 112,-251 251,-251z"/>
   <line class="fil4" x1="312" y1="796" x2="345" y2= "812" />
   <path class="fil5" d="M306 794l33 16c-4,-3 -13,-11 -15,-15l-1 -4c-4,3 -14,3 -17,3z"/>
   <path class="fil6" d="M336 119c-107,0 -194,87 -194,194 0,108 87,194 194,194 107,0 194,-86 194,-194 0,-107 -87,-194 -194,-194z"/>
   <g style="clip-path:url(#id0)">
    <g>
     <path id="1" class="fil7" style="mask:url(#id1)" d="M339 134c84,0 144,52 144,113 0,61 -61,107 -141,107 -79,1 -153,-45 -153,-106 0,-61 67,-114 150,-114z"/>
    </g>
   </g>
   <path class="fil4" d="M336 119c-107,0 -194,87 -194,194 0,108 87,194 194,194 107,0 194,-86 194,-194 0,-107 -87,-194 -194,-194z"/>
   <path class="fil8" d="M339 132c100,0 180,81 180,180 0,99 -80,180 -180,180 -99,0 -179,-81 -179,-180 0,-99 80,-180 179,-180zm0 -18c110,0 198,88 198,198 0,110 -88,198 -198,198 -109,0 -198,-88 -198,-198 0,-110 89,-198 198,-198z"/>
   <path class="fil2" d="M343 114c112,0 202,90 202,201 0,112 -90,202 -202,202 -111,0 -202,-90 -202,-202 0,-111 91,-201 202,-201zm-7 5c107,0 194,87 194,194 0,108 -87,194 -194,194 -107,0 -194,-86 -194,-194 0,-107 87,-194 194,-194z"/>
  </g>
 </g>
</svg>
